<?xml version="1.0" standalone="no"?>
<!DOCTYPE svg PUBLIC "-//W3C//DTD SVG 20010904//EN"
 "http://www.w3.org/TR/2001/REC-SVG-20010904/DTD/svg10.dtd">
<svg version="1.0" xmlns="http://www.w3.org/2000/svg"
 width="240.000000pt" height="82.000000pt" viewBox="0 0 240.000000 82.000000"
 preserveAspectRatio="xMidYMid meet">
<metadata>
Created by potrace 1.16, written by Peter Selinger 2001-2019
</metadata>
<g transform="translate(0.000000,82.000000) scale(0.100000,-0.100000)"
fill="#000000" stroke="none">
<path d="M288 695 c-59 -32 -84 -115 -53 -175 30 -58 62 -70 180 -70 121 0
155 14 181 76 18 43 18 68 -2 110 -28 58 -67 74 -180 74 -67 -1 -108 -6 -126
-15z m247 -60 c31 -30 32 -73 4 -109 -20 -25 -24 -26 -122 -26 -90 0 -103 2
-124 22 -32 30 -31 81 2 113 22 23 32 25 120 25 88 0 98 -2 120 -25z"/>
<path d="M634 697 c-2 -7 -3 -65 -2 -128 3 -110 4 -114 26 -117 22 -3 22 -2
22 102 l0 106 90 0 c79 0 91 -2 100 -20 8 -14 8 -26 0 -40 -9 -17 -21 -20 -80
-20 -39 0 -70 -4 -70 -9 0 -5 29 -34 64 -65 43 -37 73 -56 90 -56 35 0 33 7
-11 45 l-37 32 24 8 c72 22 95 103 44 150 -25 24 -34 25 -141 25 -84 0 -115
-3 -119 -13z"/>
<path d="M1010 588 c-41 -67 -76 -126 -78 -130 -2 -4 9 -8 25 -8 25 1 34 11
82 95 30 52 60 95 65 95 10 0 56 -76 56 -92 0 -5 -25 -8 -55 -8 -30 0 -55 -4
-55 -8 0 -21 29 -32 81 -32 55 0 81 -12 91 -41 2 -6 16 -9 30 -7 l27 3 -45 75
c-86 142 -114 180 -132 180 -12 0 -42 -39 -92 -122z"/>
<path d="M1323 690 c-75 -45 -84 -148 -19 -207 35 -32 37 -33 131 -33 82 0 96
2 104 19 6 10 7 21 4 25 -3 3 -46 6 -94 6 -104 0 -115 3 -135 42 -18 35 -13
64 16 96 18 19 31 22 103 22 82 0 107 9 107 37 0 10 -23 13 -92 13 -75 0 -99
-4 -125 -20z"/>
<path d="M1576 694 c-8 -20 -8 -192 0 -221 6 -22 10 -23 123 -23 103 0 118 2
128 19 7 10 9 22 6 25 -4 3 -53 6 -110 6 l-103 0 0 105 c0 96 -2 105 -19 105
-10 0 -22 -7 -25 -16z"/>
<path d="M1897 691 c-43 -28 -61 -60 -61 -110 0 -53 24 -95 65 -117 41 -21
205 -20 213 2 12 31 5 34 -92 34 -83 0 -102 3 -115 18 -33 36 -22 42 83 42 89
0 100 2 110 20 10 19 8 20 -100 20 -89 0 -110 3 -110 14 0 30 42 46 122 46 74
0 108 13 108 41 0 5 -44 9 -97 9 -79 0 -104 -4 -126 -19z"/>
<path d="M1112 228 l3 -123 78 -3 c72 -3 77 -1 77 18 0 18 -6 20 -60 20 l-60
0 0 40 0 40 55 0 c42 0 55 3 55 15 0 12 -13 15 -55 15 l-55 0 0 35 0 35 60 0
c47 0 60 3 60 15 0 12 -16 15 -80 15 l-81 0 3 -122z"/>
</g>
</svg>
