<?xml version="1.0" standalone="no"?>
<!DOCTYPE svg PUBLIC "-//W3C//DTD SVG 20010904//EN"
 "http://www.w3.org/TR/2001/REC-SVG-20010904/DTD/svg10.dtd">
<svg version="1.0" xmlns="http://www.w3.org/2000/svg"
 width="474.000000pt" height="265.000000pt" viewBox="0 0 474.000000 265.000000"
 preserveAspectRatio="xMidYMid meet">
<metadata>
Created by potrace 1.16, written by Peter Selinger 2001-2019
</metadata>
<g transform="translate(0.000000,265.000000) scale(0.100000,-0.100000)"
fill="#000000" stroke="none">
<path d="M2187 2039 c-10 -6 -52 -63 -93 -127 -42 -65 -89 -136 -105 -160 -16
-23 -29 -45 -29 -49 0 -3 -16 -28 -35 -54 -19 -27 -35 -54 -35 -60 0 -6 20 -9
52 -7 43 3 54 7 67 29 51 85 95 155 149 238 23 35 42 68 42 73 0 19 31 6 44
-20 8 -15 30 -52 50 -82 20 -30 36 -60 36 -67 0 -10 -27 -13 -105 -13 -115 0
-123 -5 -84 -54 20 -25 23 -26 134 -26 104 0 116 -2 134 -22 12 -12 23 -30 27
-40 4 -14 16 -18 60 -18 42 0 53 3 48 13 -35 57 -107 167 -124 189 -11 14 -20
29 -20 32 0 11 -126 201 -141 213 -23 18 -53 23 -72 12z"/>
<path d="M685 2021 c-44 -20 -110 -87 -125 -127 -15 -38 -12 -137 4 -176 20
-46 95 -114 142 -127 51 -14 368 -14 418 0 23 6 57 29 86 58 39 39 50 59 61
104 25 113 -27 223 -126 268 -34 16 -68 19 -230 19 -162 0 -196 -3 -230 -19z
m436 -84 c19 -12 45 -43 59 -69 23 -43 24 -49 11 -85 -20 -56 -50 -94 -87
-109 -49 -20 -344 -20 -384 1 -107 56 -111 202 -6 266 27 17 52 19 202 19 161
0 173 -1 205 -23z"/>
<path d="M1330 1809 l0 -230 43 3 42 3 5 185 5 185 154 3 c165 3 192 -4 206
-48 9 -28 -11 -75 -38 -89 -12 -6 -80 -12 -152 -13 l-129 -3 84 -74 c47 -40
104 -91 128 -112 39 -36 47 -39 102 -39 33 0 60 4 60 9 0 7 -69 66 -124 104
-26 19 -14 33 32 41 106 16 161 147 101 239 -41 62 -63 67 -304 67 l-215 0 0
-231z"/>
<path d="M2642 2020 c-135 -60 -176 -244 -80 -360 7 -9 31 -29 52 -45 l39 -30
182 -3 182 -4 21 33 c11 18 18 37 16 41 -3 4 -81 8 -173 8 -189 0 -212 6 -259
67 -38 51 -38 115 1 166 46 61 67 67 236 67 l150 0 20 29 c12 16 21 34 21 40
0 8 -56 11 -182 10 -157 0 -189 -3 -226 -19z"/>
<path d="M3110 1822 c0 -156 3 -221 12 -230 9 -9 73 -12 224 -12 l213 0 20 26
c42 53 38 54 -179 54 l-200 0 0 190 0 190 -45 0 -45 0 0 -218z"/>
<path d="M3725 2018 c-95 -48 -130 -113 -123 -226 4 -81 36 -137 103 -181 39
-25 46 -26 215 -29 l175 -4 27 33 c15 18 25 36 22 41 -3 4 -82 8 -175 8 -106
0 -179 4 -192 11 -36 19 -77 62 -77 81 0 17 13 18 184 18 l185 0 20 29 c12 16
21 34 21 40 0 8 -63 11 -203 11 -112 0 -207 3 -210 6 -11 11 23 58 59 82 31
20 45 22 183 22 l150 0 25 33 c15 19 26 37 26 40 0 4 -84 7 -187 7 -170 -1
-192 -3 -228 -22z"/>
<path d="M775 1135 c-122 -26 -168 -49 -203 -99 -27 -40 -27 -52 -2 -93 34
-57 102 -81 305 -108 126 -17 170 -35 170 -71 0 -12 -14 -26 -35 -37 -31 -16
-53 -18 -180 -13 -80 3 -157 8 -171 11 -23 6 -31 1 -58 -38 -17 -25 -28 -48
-23 -51 20 -12 179 -26 307 -26 215 0 328 26 399 93 67 63 42 140 -57 182 -43
18 -101 30 -238 49 -53 8 -109 20 -125 27 -42 21 -38 50 11 74 33 16 59 20
145 19 58 0 128 -6 157 -13 l51 -13 36 39 c19 21 36 43 36 49 0 30 -405 45
-525 19z"/>
<path d="M1415 1130 c-4 -6 -7 -95 -7 -198 l0 -187 101 -3 101 -3 0 196 0 195
-79 0 c-44 0 -86 3 -94 6 -8 3 -18 0 -22 -6z"/>
<path d="M1710 1125 c-4 -5 -7 -93 -6 -195 l1 -185 266 -3 267 -2 4 24 c9 48
0 51 -169 51 l-158 0 0 40 0 40 75 3 c64 2 78 6 92 25 32 41 24 46 -74 49
l-93 3 0 40 0 40 168 3 167 2 0 35 c0 19 -3 35 -7 35 -170 6 -527 3 -533 -5z"/>
<path d="M3271 1130 l-253 -5 -1 -190 0 -190 264 0 264 0 0 35 0 35 -150 2
c-82 1 -158 2 -168 2 -15 1 -18 8 -15 39 l3 37 75 3 c60 2 79 7 97 24 42 40
31 47 -74 50 l-98 3 0 40 0 40 165 5 165 5 3 26 c2 14 -3 30 -10 35 -7 5 -121
7 -267 4z"/>
<path d="M3640 1132 c-6 -2 -10 -79 -10 -198 l0 -194 275 0 275 0 0 40 0 40
-172 2 -173 3 -3 153 c-1 83 -6 152 -10 152 -70 3 -174 4 -182 2z"/>
<path d="M2340 935 l0 -195 221 0 c170 0 233 4 274 16 74 21 105 47 105 88 0
38 -20 59 -72 76 -21 6 -38 15 -38 20 0 4 18 15 40 24 98 39 81 116 -36 151
-37 11 -103 15 -271 15 l-223 0 0 -195z m382 114 c22 -12 24 -42 3 -59 -8 -7
-53 -15 -101 -18 -92 -5 -104 0 -104 45 0 43 24 54 107 47 42 -3 85 -10 95
-15z m-32 -152 c37 -10 46 -16 48 -38 4 -37 -35 -51 -134 -47 l-79 3 -3 33
c-2 18 2 40 9 48 14 17 94 18 159 1z"/>
</g>
</svg>
